# xmcd CD database file
#
# Track frame offsets:
#	150
#	14167
#	32006
#	37578
#	51147
#	71221
#	90653
#	113573
#	130107
#	141129
#	160144
#	174543
#	191278
#	198180
#	209274
#
# Disc length: 3493 seconds
#
# Revision: 0
# Processed by: cddbd v1.5.1PL2 Copyright (c) Steve Scherf et al.
# Submitted via: CDex 1.51
#
DISCID=c60da30f
DTITLE=G. Love and Special Sauce - Philadelphonic
DYEAR=1999
DGENRE=Freestyle
TTITLE0=No Turning Back
TTITLE1=Dreamin'
TTITLE2=Roaches
TTITLE3=Rodeo Clowns
TTITLE4=Numbers
TTITLE5=Relax
TTITLE6=Do It For Free
TTITLE7=Honor And Harmony
TTITLE8=Kick Drum
TTITLE9=Friday Night 〔Hundred Dollar Bill〕
TTITLE10=Rock and Roll 〔Shouts Out Back To The Rappers〕
TTITLE11=Love
TTITLE12=Around The World 〔Thank You〕
TTITLE13=Gimme Some Lovin'
TTITLE14=Amazing 〔Bonus Track〕
EXTD=YEAR: 1999
EXTT0=
EXTT1=
EXTT2=
EXTT3=
EXTT4=
EXTT5=
EXTT6=
EXTT7=
EXTT8=
EXTT9=
EXTT10=
EXTT11=
EXTT12=
EXTT13=
EXTT14=
PLAYORDER=
